<?xml version="1.0" encoding="UTF-8"?>
<svg viewBox="0 0 512 303" version="1.1" xmlns="http://www.w3.org/2000/svg" xmlns:xlink="http://www.w3.org/1999/xlink">
    <title>dinero</title>
    <g id="Page-1" stroke="none" stroke-width="1" fill="none" fill-rule="evenodd">
        <g id="dinero" fill-rule="nonzero">
            <path d="M488.727,302.818 L23.273,302.818 C10.473,302.818 0,292.345 0,279.545 L0,23.545 C0,10.745 10.473,0.272 23.273,0.272 L488.728,0.272 C501.528,0.272 512.001,10.745 512.001,23.545 L512.001,279.545 C512.001,292.345 501.527,302.818 488.727,302.818 Z" id="Path" fill="#0E9347"></path>
            <path d="M442.182,279.545 L69.818,279.545 C69.818,253.945 48.873,233 23.273,233 L23.273,70.091 C48.873,70.091 69.818,49.146 69.818,23.546 L442.182,23.546 C442.182,49.146 463.127,70.091 488.727,70.091 L488.727,233 C463.127,233 442.182,253.945 442.182,279.545 Z" id="Path" fill="#3BB54A"></path>
            <g id="Group" transform="translate(93.000000, 46.000000)" fill="#0E9347">
                <ellipse id="Oval" cx="163" cy="105.545" rx="93.091" ry="104.727"></ellipse>
                <circle id="Oval" cx="23.364" cy="105.545" r="23.273"></circle>
                <circle id="Oval" cx="302.636" cy="105.545" r="23.273"></circle>
            </g>
            <path d="M267.636,139.909 L244.363,139.909 C237.381,139.909 232.727,135.254 232.727,128.273 C232.727,121.291 237.382,116.637 244.363,116.637 L279.272,116.637 C286.254,116.637 290.908,111.982 290.908,105.001 C290.908,98.019 286.253,93.365 279.272,93.365 L267.636,93.365 C267.636,86.383 262.981,81.729 256,81.729 C249.018,81.729 244.364,86.384 244.364,93.365 C224.582,93.365 209.455,108.492 209.455,128.274 C209.455,148.056 224.582,163.183 244.364,163.183 L267.637,163.183 C274.619,163.183 279.273,167.838 279.273,174.819 C279.273,181.801 274.618,186.455 267.637,186.455 L232.728,186.455 C225.746,186.455 221.092,191.11 221.092,198.091 C221.092,205.073 225.747,209.727 232.728,209.727 L244.364,209.727 C244.364,216.709 249.019,221.363 256,221.363 C262.982,221.363 267.636,216.708 267.636,209.727 C287.418,209.727 302.545,194.6 302.545,174.818 C302.545,155.036 287.418,139.909 267.636,139.909 Z" id="Path" fill="#89C763"></path>
        </g>
    </g>
</svg>